<?xml version="1.0" encoding="utf-8"?>
<svg version="1.1" viewBox="1.194 1.592 193.056 183.408" xmlns="http://www.w3.org/2000/svg">
  <path fill="#000000" d=" M 105.90 75.07 A 0.39 0.39 0.0 0 0 105.97 75.79 C 130.25 83.54 139.21 110.10 125.58 131.45 C 122.97 135.54 117.19 140.51 112.56 142.86 Q 109.53 144.40 103.43 145.77 Q 98.28 146.93 93.97 146.37 C 88.51 145.67 82.70 143.93 78.18 140.64 C 76.74 139.60 75.26 138.97 74.09 137.61 C 71.91 135.08 69.35 132.90 67.71 130.18 C 59.56 116.66 60.83 96.98 72.53 85.51 C 74.35 83.73 75.99 81.87 78.22 80.64 Q 83.32 77.83 88.98 75.79 A 0.34 0.34 0.0 0 0 89.05 75.19 C 87.73 74.29 86.55 73.69 85.65 72.28 C 84.04 69.75 82.13 67.46 81.26 64.68 C 78.38 55.52 80.10 44.25 83.60 36.13 C 85.30 32.19 86.58 28.52 88.52 25.14 Q 91.78 19.45 94.19 13.33 A 0.75 0.75 0.0 0 1 94.93 12.86 Q 95.98 12.91 96.73 12.09 A 1.66 1.66 0.0 0 1 99.37 12.33 Q 100.93 14.85 102.52 17.64 C 105.05 22.11 108.93 29.20 110.44 35.76 C 110.73 37.03 111.88 38.44 112.27 40.18 Q 112.77 42.40 114.06 46.00 Q 116.99 54.22 113.75 63.81 C 112.97 66.10 111.60 68.24 110.43 70.49 C 109.26 72.76 108.02 73.90 105.90 75.07 Z M 92.07 27.36 C 86.10 41.32 77.14 62.95 94.22 73.63 A 0.93 0.93 0.0 0 0 95.65 72.82 Q 94.92 47.14 95.73 21.46 A 0.40 0.40 0.0 0 0 95.06 21.16 C 92.99 23.12 92.90 25.40 92.07 27.36 Z M 100.70 73.47 C 110.57 68.20 112.33 55.27 109.47 45.59 C 109.16 44.55 108.46 43.61 108.10 42.48 C 106.41 37.24 104.56 31.76 101.88 26.95 Q 101.17 25.69 101.11 24.24 A 0.39 0.38 -3.5 0 0 100.68 23.87 L 100.31 23.92 Q 99.98 23.95 99.98 24.29 L 100.01 73.06 Q 100.01 73.83 100.70 73.47 Z M 106.48 117.03 C 103.01 120.84 98.37 121.65 93.24 120.44 C 89.17 119.48 85.99 115.47 85.59 111.51 Q 84.41 99.87 95.04 97.58 Q 95.51 97.47 95.51 96.99 L 95.55 80.50 A 0.51 0.51 0.0 0 0 95.00 79.98 C 60.17 82.52 57.18 132.21 89.81 140.93 Q 95.84 142.54 101.77 141.46 C 115.99 138.86 125.36 128.42 127.30 114.25 C 128.98 101.94 122.60 89.09 111.66 83.23 C 108.31 81.44 104.19 80.50 100.34 79.77 A 0.53 0.52 5.5 0 0 99.71 80.28 L 99.75 96.99 Q 99.75 97.55 100.30 97.65 C 109.14 99.26 112.47 110.45 106.48 117.03 Z M 104.8826 108.3579 A 6.37 6.37 0.0 0 0 98.6134 101.8886 L 96.3537 101.8531 A 6.37 6.37 0.0 0 0 89.8844 108.1223 L 89.8574 109.8421 A 6.37 6.37 0.0 0 0 96.1266 116.3114 L 98.3863 116.3469 A 6.37 6.37 0.0 0 0 104.8556 110.0777 L 104.8826 108.3579 Z"/>
  <path fill="#000000" d=" M 60.25 164.23 L 60.23 155.49 Q 60.23 154.45 61.26 154.55 L 63.45 154.77 A 1.45 1.44 -87.2 0 1 64.75 156.21 L 64.76 168.49 Q 64.76 168.99 64.26 168.99 Q 45.47 169.02 26.75 169.01 C 23.94 169.01 19.42 167.60 17.24 165.15 C 14.58 162.15 12.77 159.69 12.76 155.50 Q 12.70 110.00 12.73 64.50 Q 12.73 60.44 16.54 56.20 Q 16.88 55.82 16.93 55.31 Q 17.68 48.00 16.85 40.71 A 0.41 0.41 0.0 0 1 17.26 40.25 L 44.47 40.22 Q 44.97 40.22 44.99 40.72 L 45.25 51.50 Q 45.27 52.00 45.76 52.00 L 62.97 52.01 Q 64.75 52.01 64.75 53.78 L 64.76 64.74 Q 64.76 66.73 62.76 66.76 L 61.64 66.78 Q 60.23 66.80 60.23 65.39 L 60.25 57.26 A 0.50 0.50 0.0 0 0 59.75 56.76 Q 43.10 56.76 26.25 56.76 Q 20.56 56.75 18.41 60.93 Q 17.30 63.10 17.26 68.76 Q 17.00 111.63 16.99 154.50 Q 16.99 157.12 18.84 160.19 Q 20.00 162.11 22.13 163.24 Q 24.98 164.74 26.49 164.75 Q 43.13 164.81 59.76 164.72 Q 60.25 164.72 60.25 164.23 Z M 40.69 51.95 A 0.31 0.31 0.0 0 0 41.00 51.64 L 41.00 45.31 A 0.31 0.31 0.0 0 0 40.69 45.00 L 21.56 45.00 A 0.31 0.31 0.0 0 0 21.25 45.31 L 21.25 51.95 A 0.31 0.31 0.0 0 0 21.56 52.26 L 40.69 51.95 Z"/>
  <path fill="#333333" d=" M 390.33 73.62 Q 390.88 72.86 389.97 72.62 C 387.86 72.07 384.92 70.98 382.95 71.97 Q 382.25 72.33 382.26 71.55 L 382.30 68.23 Q 382.31 67.52 383.01 67.39 C 385.90 66.83 388.79 67.93 391.18 68.03 Q 393.56 68.13 395.84 68.14 Q 396.70 68.15 396.56 69.00 C 395.38 76.38 390.78 82.24 383.08 83.33 C 372.75 84.79 363.89 78.39 363.15 67.90 C 361.80 48.52 388.94 42.92 396.01 60.83 A 0.22 0.22 0.0 0 1 395.81 61.13 L 391.76 61.13 Q 391.46 61.13 391.30 60.87 C 384.29 49.02 366.65 54.08 367.54 67.95 C 368.09 76.67 377.32 81.41 385.18 78.14 C 387.35 77.24 388.97 75.45 390.33 73.62 Z"/>
  <path fill="#333333" d=" M 645.18 66.87 A 16.85 16.85 0.0 0 1 628.33 83.72 A 16.85 16.85 0.0 0 1 611.48 66.87 A 16.85 16.85 0.0 0 1 628.33 50.02 A 16.85 16.85 0.0 0 1 645.18 66.87 Z M 640.80 66.92 A 12.47 12.47 0.0 0 0 628.33 54.45 A 12.47 12.47 0.0 0 0 615.86 66.92 A 12.47 12.47 0.0 0 0 628.33 79.39 A 12.47 12.47 0.0 0 0 640.80 66.92 Z"/>
  <path fill="#333333" d=" M 203.63 74.49 L 203.64 82.91 Q 203.64 83.23 203.32 83.23 L 199.47 83.20 Q 199.24 83.20 199.24 82.97 L 199.23 56.15 Q 199.23 55.57 198.65 55.55 L 196.71 55.46 A 0.75 0.75 0.0 0 1 195.99 54.71 L 195.96 51.68 Q 195.96 50.95 196.68 51.06 C 207.03 52.67 220.14 45.05 223.19 60.01 C 224.43 66.10 220.81 71.83 214.78 73.46 C 211.88 74.24 207.68 73.72 204.20 73.89 Q 203.63 73.92 203.63 74.49 Z M 203.62 55.62 L 203.68 68.68 A 0.82 0.82 0.0 0 0 204.51 69.50 L 211.92 69.46 A 7.59 6.90 -0.3 0 0 219.47 62.52 L 219.47 61.62 A 7.59 6.90 -0.3 0 0 211.84 54.76 L 204.43 54.80 A 0.82 0.82 0.0 0 0 203.62 55.62 Z"/>
  <path fill="#333333" d=" M 295.82 66.88 A 16.84 16.84 0.0 0 1 278.98 83.72 A 16.84 16.84 0.0 0 1 262.14 66.88 A 16.84 16.84 0.0 0 1 278.98 50.04 A 16.84 16.84 0.0 0 1 295.82 66.88 Z M 291.44 66.92 A 12.47 12.47 0.0 0 0 278.97 54.45 A 12.47 12.47 0.0 0 0 266.50 66.92 A 12.47 12.47 0.0 0 0 278.97 79.39 A 12.47 12.47 0.0 0 0 291.44 66.92 Z"/>
  <path fill="#333333" d=" M 359.65 66.88 A 16.85 16.85 0.0 0 1 342.80 83.73 A 16.85 16.85 0.0 0 1 325.95 66.88 A 16.85 16.85 0.0 0 1 342.80 50.03 A 16.85 16.85 0.0 0 1 359.65 66.88 Z M 355.25 66.92 A 12.47 12.47 0.0 0 0 342.78 54.45 A 12.47 12.47 0.0 0 0 330.31 66.92 A 12.47 12.47 0.0 0 0 342.78 79.39 A 12.47 12.47 0.0 0 0 355.25 66.92 Z"/>
  <path fill="#1a1919" d=" M 408.86 73.41 L 408.78 82.32 A 0.83 0.83 0.0 0 1 407.92 83.14 L 405.20 83.05 Q 404.23 83.02 404.24 82.05 Q 404.30 77.50 404.23 73.68 C 404.19 71.22 402.60 71.14 401.65 69.34 Q 399.41 65.09 402.24 61.05 Q 402.51 60.67 402.94 60.48 C 404.01 60.00 404.36 59.69 404.34 58.46 Q 404.28 54.76 404.55 51.06 Q 404.58 50.55 405.09 50.54 C 412.15 50.44 422.91 49.33 424.88 58.17 Q 426.74 66.49 419.24 70.31 A 1.11 1.10 -27.4 0 0 418.76 71.81 C 420.54 75.23 424.35 80.58 428.19 81.08 Q 428.74 81.15 428.75 81.71 L 428.78 83.90 Q 428.81 86.02 426.81 85.30 Q 417.36 81.91 413.69 72.53 A 0.61 0.61 0.0 0 0 413.02 72.15 L 409.36 72.81 Q 408.86 72.90 408.86 73.41 Z M 415.09 66.26 A 0.83 0.83 0.0 0 0 416.08 66.65 C 420.78 65.13 423.16 59.38 418.13 56.35 Q 415.08 54.51 409.24 54.80 Q 408.75 54.82 408.75 55.32 L 408.75 59.66 Q 408.75 60.17 409.21 60.42 Q 413.00 62.48 415.09 66.26 Z M 409.17 68.38 A 0.95 0.95 0.0 0 0 410.22 66.87 L 408.10 64.31 A 0.95 0.95 0.0 0 0 407.41 63.97 L 405.44 63.88 A 0.95 0.95 0.0 0 0 404.48 65.11 L 404.91 66.47 A 0.95 0.95 0.0 0 0 405.50 67.09 L 409.17 68.38 Z"/>
  <path fill="#1a1919" d=" M 434.97 72.00 L 433.10 71.25 Q 432.16 70.88 432.10 69.86 L 431.96 67.31 A 0.60 0.59 11.8 0 1 432.82 66.75 Q 434.95 67.80 436.20 67.91 Q 437.41 68.01 438.29 65.94 Q 441.42 58.65 444.31 51.28 A 1.08 1.08 0.0 0 1 445.03 50.64 Q 447.18 50.05 449.41 50.34 Q 450.03 50.42 450.26 51.01 L 462.37 81.91 Q 463.00 83.51 461.29 83.28 L 459.52 83.05 A 1.90 1.87 81.7 0 1 458.05 81.94 L 453.76 72.29 A 1.27 1.26 -10.1 0 0 452.69 71.55 Q 447.23 71.21 441.86 72.25 A 1.81 1.80 5.7 0 0 440.56 73.31 L 436.55 82.78 Q 436.44 83.04 436.16 83.05 L 432.17 83.24 A 0.36 0.36 0.0 0 1 431.82 82.74 L 435.61 73.50 A 1.15 1.14 22.0 0 0 434.97 72.00 Z M 443.21 66.65 A 0.34 0.34 0.0 0 0 443.53 67.10 L 451.03 67.01 A 0.34 0.34 0.0 0 0 451.34 66.55 L 447.46 56.12 A 0.34 0.34 0.0 0 0 446.82 56.12 L 443.21 66.65 Z"/>
  <path fill="#333333" d=" M 471.39 74.30 L 471.39 82.49 Q 471.39 83.12 470.76 83.13 L 467.77 83.19 Q 467.10 83.20 467.10 82.52 L 467.01 56.27 Q 467.01 55.73 466.49 55.54 Q 465.74 55.28 464.93 55.28 A 0.91 0.91 0.0 0 1 464.02 54.43 L 463.86 51.97 Q 463.80 51.08 464.69 51.12 Q 469.29 51.36 474.08 50.80 Q 480.22 50.08 482.39 50.56 C 491.40 52.53 494.65 65.37 486.93 71.18 C 482.24 74.72 477.45 73.83 471.88 73.81 A 0.49 0.49 0.0 0 0 471.39 74.30 Z M 471.44 56.41 L 471.46 67.75 A 1.76 1.76 0.0 0 0 473.22 69.51 L 479.81 69.50 A 7.47 7.00 -0.1 0 0 487.27 62.49 L 487.27 61.63 A 7.47 7.00 -0.1 0 0 479.79 54.64 L 473.20 54.65 A 1.76 1.76 0.0 0 0 471.44 56.41 Z"/>
  <path fill="#333333" d=" M 667.23 71.56 C 669.07 75.21 672.72 80.86 677.30 81.27 Q 677.60 81.30 677.59 81.60 L 677.52 85.01 Q 677.52 85.32 677.22 85.32 C 670.44 85.51 665.24 77.84 662.33 72.74 Q 662.06 72.26 661.51 72.32 L 658.06 72.70 Q 657.40 72.77 657.41 73.43 L 657.45 82.75 Q 657.45 83.20 657.00 83.20 L 653.72 83.21 Q 653.23 83.21 653.23 82.72 L 653.18 72.31 A 0.98 0.98 0.0 0 0 652.74 71.49 C 647.98 68.29 648.10 63.20 652.82 59.70 A 0.91 0.90 72.0 0 0 653.19 58.97 L 653.20 51.28 Q 653.20 50.78 653.69 50.72 C 661.11 49.66 674.00 50.69 673.94 61.07 Q 673.90 67.42 667.59 70.49 Q 666.87 70.84 667.23 71.56 Z M 657.87 60.43 C 660.73 62.48 662.28 63.43 663.84 66.62 A 0.74 0.74 0.0 0 0 664.74 66.99 C 668.28 65.78 670.83 62.60 669.12 58.90 C 667.41 55.19 661.61 54.62 657.93 54.80 Q 657.47 54.82 657.47 55.29 L 657.41 59.52 Q 657.40 60.10 657.87 60.43 Z M 654.20 67.67 A 0.96 0.96 0.0 0 0 654.91 68.07 L 658.71 68.36 A 0.96 0.96 0.0 0 0 659.45 66.71 L 656.54 63.94 A 0.96 0.96 0.0 0 0 655.68 63.69 L 653.39 64.18 A 0.96 0.96 0.0 0 0 652.80 65.67 L 654.20 67.67 Z"/>
  <path fill="#333333" d=" M 233.74 69.03 L 233.72 82.92 A 0.31 0.31 0.0 0 1 233.41 83.23 L 229.60 83.21 A 0.31 0.31 0.0 0 1 229.29 82.90 L 229.28 50.84 A 0.31 0.31 0.0 0 1 229.59 50.53 L 233.42 50.53 A 0.31 0.31 0.0 0 1 233.73 50.84 L 233.73 63.97 A 0.31 0.31 0.0 0 0 234.04 64.28 L 252.51 64.28 A 0.31 0.31 0.0 0 0 252.82 63.97 L 252.76 50.84 A 0.31 0.31 0.0 0 1 253.07 50.53 L 256.90 50.53 A 0.31 0.31 0.0 0 1 257.21 50.84 L 257.21 82.90 A 0.31 0.31 0.0 0 1 256.90 83.21 L 253.09 83.20 A 0.31 0.31 0.0 0 1 252.78 82.89 L 252.78 69.03 A 0.31 0.31 0.0 0 0 252.47 68.72 L 234.05 68.72 A 0.31 0.31 0.0 0 0 233.74 69.03 Z"/>
  <path fill="#333333" d=" M 313.11 58.18 L 313.07 82.43 Q 313.07 83.19 312.31 83.18 L 309.47 83.14 Q 308.82 83.13 308.82 82.48 L 308.84 56.26 Q 308.84 55.81 308.42 55.67 C 306.59 55.06 300.94 54.11 300.21 56.74 Q 300.02 57.45 299.28 57.45 L 296.28 57.43 Q 295.69 57.43 295.79 56.84 C 297.76 45.26 312.42 53.29 318.49 54.52 Q 320.48 54.92 321.79 53.55 Q 322.18 53.13 322.22 52.57 L 322.32 51.08 Q 322.36 50.52 322.92 50.53 L 326.23 50.54 Q 326.75 50.54 326.69 51.05 C 325.82 59.11 320.56 59.62 313.68 57.75 Q 313.12 57.60 313.11 58.18 Z"/>
  <path fill="#333333" d=" M 501.50 69.07 L 501.49 82.84 A 0.36 0.36 0.0 0 1 501.13 83.20 L 497.53 83.22 A 0.36 0.36 0.0 0 1 497.17 82.86 L 497.18 50.88 A 0.36 0.36 0.0 0 1 497.54 50.52 L 501.13 50.55 A 0.36 0.36 0.0 0 1 501.49 50.91 L 501.48 63.94 A 0.36 0.36 0.0 0 0 501.84 64.30 L 520.21 64.28 A 0.36 0.36 0.0 0 0 520.57 63.92 L 520.55 50.90 A 0.36 0.36 0.0 0 1 520.91 50.54 L 524.59 50.52 A 0.36 0.36 0.0 0 1 524.95 50.88 L 524.90 82.79 A 0.36 0.36 0.0 0 1 524.55 83.15 L 520.92 83.22 A 0.36 0.36 0.0 0 1 520.55 82.86 L 520.55 69.08 A 0.36 0.36 0.0 0 0 520.19 68.72 L 501.86 68.71 A 0.36 0.36 0.0 0 0 501.50 69.07 Z"/>
  <path fill="#333333" d=" M 542.91 67.91 L 550.86 50.80 A 0.45 0.45 0.0 0 1 551.27 50.54 L 555.27 50.55 A 0.17 0.17 0.0 0 1 555.43 50.79 Q 550.66 60.94 545.92 71.01 C 544.21 74.65 544.80 79.04 544.82 82.88 Q 544.83 83.23 544.47 83.23 L 540.75 83.21 Q 540.35 83.21 540.35 82.82 C 540.34 79.08 540.99 74.60 539.37 71.08 Q 534.75 61.09 529.90 50.76 A 0.16 0.16 0.0 0 1 530.05 50.53 L 534.20 50.56 Q 534.40 50.56 534.49 50.75 L 542.35 67.91 A 0.31 0.31 0.0 0 0 542.91 67.91 Z"/>
  <path fill="#333333" d=" M 590.78 69.79 L 590.78 82.72 Q 590.78 83.23 590.28 83.23 L 586.78 83.22 A 0.44 0.44 0.0 0 1 586.34 82.78 L 586.33 50.89 A 0.37 0.36 0.0 0 1 586.70 50.53 L 607.58 50.54 Q 608.11 50.54 608.11 51.08 L 608.11 54.55 Q 608.11 55.21 607.45 55.21 L 591.79 55.20 Q 590.78 55.20 590.78 56.21 L 590.78 63.51 Q 590.78 64.53 591.79 64.70 C 595.18 65.25 598.55 63.13 601.58 64.21 Q 602.27 64.46 602.27 65.19 L 602.27 68.75 A 0.39 0.39 0.0 0 1 601.75 69.12 C 598.77 68.04 594.49 69.44 591.19 69.38 Q 590.78 69.38 590.78 69.79 Z"/>
  <path fill="#000000" d=" M 133.76 164.49 Q 150.66 164.52 167.56 164.48 C 169.55 164.48 173.27 163.11 174.47 161.44 Q 177.25 157.56 177.25 154.75 Q 177.26 111.12 177.24 67.50 C 177.24 64.57 175.89 59.83 172.99 58.13 Q 170.72 56.80 169.00 56.79 Q 151.17 56.73 133.44 56.77 A 0.70 0.69 90.0 0 0 132.75 57.47 L 132.76 64.94 Q 132.77 66.28 131.44 66.43 L 129.74 66.63 Q 128.72 66.75 128.59 65.72 Q 127.79 59.15 128.34 55.07 C 128.65 52.73 131.05 52.00 133.29 52.00 Q 151.27 52.05 169.25 52.42 C 173.77 52.51 178.89 56.19 180.44 60.18 Q 181.57 63.09 181.58 65.50 Q 181.63 110.25 181.60 155.00 C 181.60 160.85 177.92 165.51 172.81 167.79 Q 170.11 168.99 164.54 169.00 Q 146.89 169.02 129.26 168.99 Q 128.75 168.99 128.75 168.48 L 128.75 157.51 Q 128.75 155.51 130.52 154.56 L 130.97 154.32 Q 132.91 153.28 132.98 155.48 L 133.24 163.99 Q 133.26 164.49 133.76 164.49 Z"/>
  <path fill="#000000" d=" M 75.71 69.28 C 68.80 73.67 64.74 77.03 60.38 83.10 C 47.91 100.46 48.51 123.65 61.77 140.28 C 68.35 148.54 77.53 155.08 88.09 156.99 C 91.87 157.68 96.54 157.49 100.74 157.64 C 105.41 157.82 111.43 155.83 116.12 153.54 C 124.27 149.56 131.85 142.42 136.32 134.71 C 140.12 128.14 143.10 117.70 143.09 110.76 Q 143.09 104.46 140.22 94.74 C 139.01 90.65 136.64 87.24 134.36 83.66 C 132.78 81.19 130.56 79.11 128.60 76.69 Q 127.43 75.24 125.98 74.26 Q 122.27 71.76 118.32 68.69 Q 116.99 67.66 118.08 66.37 L 118.59 65.75 Q 119.73 64.40 121.19 65.39 C 123.97 67.24 126.95 68.79 129.30 70.94 Q 134.02 75.25 137.80 80.39 C 139.19 82.29 140.42 84.94 141.83 87.22 Q 142.77 88.75 143.25 90.05 Q 155.17 122.32 132.25 147.48 Q 130.47 149.44 122.38 155.38 Q 119.08 157.81 112.80 159.83 C 104.31 162.57 95.48 162.87 86.78 161.38 C 82.76 160.70 79.33 159.08 75.52 157.39 C 68.32 154.20 61.28 147.63 56.69 141.22 C 45.93 126.20 44.44 108.89 50.41 91.84 C 51.84 87.73 54.41 84.12 56.71 80.34 C 58.61 77.22 61.15 75.01 63.67 72.42 Q 67.57 68.40 75.22 64.22 A 0.39 0.38 71.9 0 1 75.79 64.51 L 76.22 68.19 Q 76.31 68.90 75.71 69.28 Z"/>
  <path fill="#000000" d=" M 44.61 87.25 L 25.91 87.25 A 0.47 0.47 0.0 0 1 25.44 86.78 L 25.39 69.71 A 0.47 0.47 0.0 0 1 25.85 69.24 L 44.55 68.94 A 0.47 0.47 0.0 0 1 45.03 69.41 L 45.08 86.78 A 0.47 0.47 0.0 0 1 44.61 87.25 Z M 40.6368 74.0895 A 0.58 0.58 0.0 0 0 40.0578 73.5085 L 30.3579 73.4915 A 0.58 0.58 0.0 0 0 29.7768 74.0705 L 29.7632 81.9105 A 0.58 0.58 0.0 0 0 30.3422 82.4915 L 40.0421 82.5085 A 0.58 0.58 0.0 0 0 40.6232 81.9295 L 40.6368 74.0895 Z"/>
  <path fill="#333333" d=" M 391.43 94.24 L 395.63 95.63 A 0.32 0.32 0.0 0 1 395.85 95.93 L 395.86 130.60 A 0.32 0.32 0.0 0 1 395.54 130.92 L 391.43 130.88 A 0.32 0.32 0.0 0 1 391.17 130.76 L 370.41 103.73 A 0.32 0.32 0.0 0 0 369.84 103.93 L 369.78 130.59 A 0.32 0.32 0.0 0 1 369.46 130.91 L 365.26 130.87 A 0.32 0.32 0.0 0 1 364.94 130.55 L 364.95 94.86 A 0.32 0.32 0.0 0 1 365.27 94.54 L 369.46 94.53 A 0.32 0.32 0.0 0 1 369.72 94.66 L 390.42 121.54 A 0.32 0.32 0.0 0 0 390.99 121.34 L 391.01 94.54 A 0.32 0.32 0.0 0 1 391.43 94.24 Z"/>
  <path fill="#333333" d=" M 418.49 123.91 L 429.16 95.77 Q 429.70 94.35 431.22 94.39 L 433.58 94.45 Q 434.99 94.49 434.48 95.80 L 420.89 130.37 Q 420.68 130.91 420.10 130.91 L 416.01 130.90 Q 415.45 130.89 415.26 130.38 Q 410.66 118.35 405.73 106.48 C 404.54 103.62 402.90 98.91 403.44 95.85 Q 403.53 95.31 404.08 95.38 L 405.52 95.58 Q 406.15 95.67 406.39 96.26 C 407.37 98.69 408.75 100.94 409.66 103.24 Q 413.75 113.60 417.76 123.91 A 0.39 0.39 0.0 0 0 418.49 123.91 Z"/>
  <path fill="#333333" d=" M 471.27 117.77 C 473.10 121.80 477.47 128.33 482.49 128.52 A 0.27 0.26 -88.9 0 1 482.74 128.79 L 482.76 133.07 Q 482.76 133.41 482.42 133.37 C 474.32 132.42 469.41 126.01 465.94 119.27 Q 465.71 118.83 465.22 118.84 L 461.23 118.94 A 0.83 0.83 0.0 0 0 460.42 119.77 L 460.45 130.25 Q 460.45 130.71 459.99 130.71 L 456.04 130.70 Q 455.64 130.70 455.64 130.30 L 455.65 118.74 Q 455.65 118.17 455.18 117.85 C 450.79 114.88 449.25 108.74 454.65 105.77 Q 455.71 105.18 455.68 104.26 Q 455.53 99.68 455.70 95.10 Q 455.72 94.62 456.20 94.57 C 463.73 93.71 476.33 94.67 478.60 103.56 Q 479.90 108.67 476.62 113.12 C 475.35 114.84 473.38 115.72 471.52 116.92 Q 471.02 117.24 471.27 117.77 Z M 473.84 104.94 C 472.08 99.53 465.91 99.24 460.97 99.29 Q 460.49 99.29 460.49 99.77 L 460.45 104.74 A 0.92 0.92 0.0 0 0 460.96 105.58 Q 464.66 107.44 466.79 111.10 Q 468.48 114.01 470.94 111.72 L 472.45 110.31 A 5.13 5.13 0.0 0 0 473.84 104.94 Z M 461.72 114.55 A 1.09 1.09 0.0 0 0 462.73 112.73 L 459.74 109.64 A 1.09 1.09 0.0 0 0 458.91 109.31 L 456.39 109.41 A 1.09 1.09 0.0 0 0 455.38 110.79 L 455.91 112.72 A 1.09 1.09 0.0 0 0 456.74 113.50 L 461.72 114.55 Z"/>
  <path fill="#333333" d=" M 523.33 112.73 A 18.69 18.69 0.0 0 1 504.64 131.42 A 18.69 18.69 0.0 0 1 485.95 112.73 A 18.69 18.69 0.0 0 1 504.64 94.04 A 18.69 18.69 0.0 0 1 523.33 112.73 Z M 518.53 112.73 A 13.90 13.90 0.0 0 0 504.63 98.83 A 13.90 13.90 0.0 0 0 490.73 112.73 A 13.90 13.90 0.0 0 0 504.63 126.63 A 13.90 13.90 0.0 0 0 518.53 112.73 Z"/>
  <path fill="#333333" d=" M 215.24 103.21 L 215.22 130.68 Q 215.22 130.88 215.02 130.88 L 210.73 130.89 A 0.27 0.26 0.0 0 1 210.46 130.63 L 210.47 101.03 Q 210.47 100.19 209.65 100.01 C 207.67 99.57 201.26 98.60 200.79 101.56 Q 200.68 102.22 200.01 102.22 L 196.74 102.22 Q 196.05 102.22 196.10 101.54 C 196.38 97.72 198.92 95.51 202.65 94.88 C 208.13 93.95 213.08 96.33 218.09 98.24 C 219.95 98.96 224.85 99.80 225.31 96.75 Q 225.48 95.62 225.48 95.06 Q 225.48 94.52 226.01 94.52 L 229.81 94.53 A 0.53 0.52 -88.4 0 1 230.33 95.09 C 229.75 103.48 222.77 104.94 215.96 102.70 Q 215.24 102.47 215.24 103.21 Z"/>
  <path fill="#333333" d=" M 238.41 115.10 L 238.44 130.52 A 0.39 0.39 0.0 0 1 238.05 130.91 L 233.89 130.90 A 0.39 0.39 0.0 0 1 233.50 130.51 L 233.50 94.91 A 0.39 0.39 0.0 0 1 233.89 94.52 L 238.04 94.53 A 0.39 0.39 0.0 0 1 238.43 94.92 L 238.40 109.41 A 0.39 0.39 0.0 0 0 238.79 109.80 L 259.19 109.80 A 0.39 0.39 0.0 0 0 259.58 109.41 L 259.58 94.92 A 0.39 0.39 0.0 0 1 259.97 94.53 L 264.13 94.52 A 0.39 0.39 0.0 0 1 264.52 94.91 L 264.52 130.54 A 0.39 0.39 0.0 0 1 264.13 130.93 L 259.98 130.90 A 0.39 0.39 0.0 0 1 259.59 130.51 L 259.58 115.11 A 0.39 0.39 0.0 0 0 259.19 114.72 L 238.80 114.71 A 0.39 0.39 0.0 0 0 238.41 115.10 Z"/>
  <path fill="#333333" d=" M 276.52 100.22 L 276.52 109.43 Q 276.52 109.81 276.88 109.94 C 280.24 111.22 283.57 109.67 287.12 109.28 A 1.90 1.90 0.0 0 1 289.23 111.17 L 289.23 114.74 A 0.36 0.36 0.0 0 1 288.80 115.09 C 284.80 114.28 281.15 115.81 276.95 115.39 Q 276.51 115.34 276.51 115.79 L 276.52 125.41 A 0.39 0.38 89.3 0 0 276.91 125.80 L 296.50 125.78 Q 296.71 125.78 296.71 126.00 L 296.75 130.54 Q 296.76 130.89 296.40 130.89 L 272.09 130.88 Q 271.54 130.88 271.54 130.34 L 271.53 94.79 A 0.26 0.26 0.0 0 1 271.79 94.53 L 295.26 94.53 Q 295.74 94.53 295.74 95.01 L 295.75 99.23 Q 295.76 99.72 295.27 99.72 L 277.03 99.71 Q 276.52 99.71 276.52 100.22 Z"/>
  <path fill="#333333" d=" M 337.64 100.28 L 337.64 109.42 Q 337.64 109.87 338.07 110.01 C 341.57 111.16 344.59 109.64 348.27 109.31 A 1.90 1.90 0.0 0 1 350.35 111.23 L 350.31 114.48 Q 350.30 114.98 349.81 114.93 C 345.68 114.58 342.24 116.02 338.20 115.29 Q 337.63 115.19 337.63 115.76 L 337.64 125.23 Q 337.64 125.82 338.23 125.82 L 357.53 125.80 A 0.24 0.24 0.0 0 1 357.77 126.03 L 357.81 130.53 Q 357.81 130.88 357.47 130.88 L 333.17 130.89 Q 332.70 130.89 332.70 130.42 L 332.69 95.05 Q 332.69 94.54 333.20 94.54 L 356.41 94.52 Q 356.80 94.52 356.81 94.91 L 356.88 99.36 A 0.37 0.37 0.0 0 1 356.51 99.73 L 338.22 99.70 Q 337.64 99.70 337.64 100.28 Z"/>
  <rect fill="#333333" x="440.30" y="94.56" width="4.92" height="36.32" rx="0.35"/>
  <path fill="#333333" d=" M 533.72 101.76 L 533.72 130.24 A 0.46 0.46 0.0 0 1 533.26 130.70 L 529.21 130.71 Q 528.87 130.71 528.87 130.37 L 528.90 95.25 Q 528.90 94.80 529.34 94.70 C 538.78 92.53 541.92 105.04 545.29 110.47 Q 545.86 111.39 547.14 111.95 C 554.23 115.07 554.78 92.13 567.68 94.64 Q 568.19 94.74 568.19 95.26 L 568.13 130.34 A 0.38 0.38 0.0 0 1 567.75 130.72 L 563.50 130.72 Q 563.29 130.72 563.29 130.51 L 563.27 102.00 Q 563.27 99.31 561.91 101.63 C 558.36 107.68 553.38 122.63 543.22 115.26 C 540.42 113.23 537.08 104.82 534.85 101.42 Q 533.72 99.70 533.72 101.76 Z"/>
  <path fill="#333333" d=" M 580.15 100.16 L 580.17 109.29 Q 580.17 109.83 580.67 110.03 C 584.56 111.64 588.14 108.40 591.98 109.63 Q 592.79 109.89 592.79 110.74 L 592.78 114.53 Q 592.78 115.42 591.98 115.05 Q 590.50 114.36 589.49 114.65 Q 584.99 115.92 580.51 115.36 A 0.35 0.35 0.0 0 0 580.12 115.71 L 580.12 125.47 A 0.35 0.34 -0.0 0 0 580.47 125.81 L 599.96 125.80 A 0.39 0.39 0.0 0 1 600.35 126.19 L 600.38 130.50 Q 600.38 130.87 600.00 130.87 L 575.81 130.88 Q 575.23 130.88 575.23 130.31 L 575.23 95.02 Q 575.23 94.52 575.73 94.52 L 598.95 94.53 A 0.43 0.43 0.0 0 1 599.38 94.95 L 599.42 99.27 Q 599.42 99.71 598.98 99.71 L 580.59 99.72 Q 580.15 99.72 580.15 100.16 Z"/>
  <path fill="#333333" d=" M 633.47 121.24 L 633.45 94.87 A 0.34 0.34 0.0 0 1 633.79 94.53 L 638.09 94.54 A 0.34 0.34 0.0 0 1 638.43 94.88 L 638.42 130.58 A 0.34 0.34 0.0 0 1 638.08 130.92 L 633.96 130.90 A 0.34 0.34 0.0 0 1 633.69 130.77 L 612.97 103.85 A 0.34 0.34 0.0 0 0 612.36 104.06 L 612.38 130.55 A 0.34 0.34 0.0 0 1 612.04 130.89 L 607.76 130.93 A 0.34 0.34 0.0 0 1 607.42 130.59 L 607.41 94.87 A 0.34 0.34 0.0 0 1 607.75 94.53 L 611.98 94.53 A 0.34 0.34 0.0 0 1 612.25 94.66 L 632.86 121.45 A 0.34 0.34 0.0 0 0 633.47 121.24 Z"/>
  <path fill="#333333" d=" M 662.48 103.00 L 662.47 130.71 Q 662.47 130.90 662.27 130.90 L 658.03 130.89 Q 657.67 130.89 657.67 130.53 L 657.66 101.22 Q 657.66 100.24 656.70 100.01 Q 653.03 99.14 649.37 99.87 A 0.99 0.98 -81.9 0 0 648.67 100.40 L 647.95 101.79 A 0.83 0.82 13.7 0 1 647.22 102.23 L 643.73 102.23 Q 643.16 102.23 643.21 101.65 C 643.53 98.21 645.53 95.91 648.93 95.07 C 657.44 92.97 662.78 99.53 670.67 98.75 Q 672.13 98.61 672.37 97.16 L 672.69 95.24 A 0.84 0.84 0.0 0 1 673.52 94.53 L 676.82 94.55 Q 677.46 94.55 677.45 95.19 C 677.33 103.34 669.68 105.00 663.12 102.55 A 0.48 0.48 0.0 0 0 662.48 103.00 Z"/>
  <path fill="#1a1919" d=" M 294.17 154.09 C 284.46 147.30 279.53 164.82 287.34 169.23 Q 290.76 171.15 294.75 167.86 Q 295.03 167.63 295.27 167.88 L 296.15 168.77 Q 296.39 169.01 296.15 169.25 Q 293.40 171.98 290.28 172.11 C 277.19 172.63 277.71 147.90 292.10 150.66 Q 294.09 151.04 295.42 152.47 Q 295.84 152.91 295.45 153.38 L 294.94 153.99 Q 294.60 154.39 294.17 154.09 Z"/>
  <path fill="#1a1919" d=" M 257.76 164.01 L 257.73 171.23 A 0.47 0.46 -90.0 0 1 257.27 171.70 L 255.74 171.74 Q 255.22 171.75 255.22 171.24 L 255.22 151.50 Q 255.22 150.89 255.82 150.86 C 259.24 150.67 264.80 150.26 267.28 152.20 C 269.69 154.10 269.75 158.09 268.18 160.46 C 266.01 163.73 261.62 163.39 258.26 163.49 Q 257.76 163.50 257.76 164.01 Z M 257.72 153.15 L 257.76 160.89 A 0.44 0.44 0.0 0 0 258.20 161.33 L 262.49 161.31 A 4.25 3.93 -0.3 0 0 266.72 157.36 L 266.72 156.60 A 4.25 3.93 -0.3 0 0 262.45 152.69 L 258.16 152.71 A 0.44 0.44 0.0 0 0 257.72 153.15 Z"/>
  <rect fill="#1a1919" x="273.65" y="150.79" width="2.58" height="20.92" rx="0.40"/>
  <path fill="#1a1919" d=" M 303.78 152.93 L 298.17 152.89 A 0.44 0.44 0.0 0 1 297.73 152.43 L 297.80 151.21 A 0.44 0.44 0.0 0 1 298.24 150.79 L 312.68 150.78 A 0.44 0.44 0.0 0 1 313.11 151.18 L 313.22 152.44 A 0.44 0.44 0.0 0 1 312.78 152.92 L 307.19 152.92 A 0.44 0.44 0.0 0 0 306.75 153.36 L 306.75 171.27 A 0.44 0.44 0.0 0 1 306.32 171.71 L 304.67 171.73 A 0.44 0.44 0.0 0 1 304.22 171.29 L 304.22 153.37 A 0.44 0.44 0.0 0 0 303.78 152.93 Z"/>
  <path fill="#1a1919" d=" M 327.14 169.14 C 330.63 167.00 329.52 154.98 329.47 151.27 Q 329.46 150.78 329.95 150.78 L 331.46 150.76 Q 331.86 150.75 331.87 151.15 Q 331.93 157.24 331.89 163.49 C 331.85 169.26 328.61 173.19 322.44 171.90 C 317.98 170.97 317.04 167.02 316.98 163.00 Q 316.90 156.98 316.96 151.11 Q 316.96 150.78 317.28 150.78 L 319.05 150.76 A 0.42 0.42 0.0 0 1 319.47 151.18 C 319.46 155.14 318.27 166.55 321.69 169.06 Q 324.24 170.93 327.14 169.14 Z"/>
  <path fill="#1a1919" d=" M 340.26 163.23 L 340.26 171.24 A 0.49 0.48 0.6 0 1 339.76 171.72 L 338.21 171.70 Q 337.72 171.69 337.72 171.21 L 337.73 151.28 Q 337.73 150.85 338.17 150.83 C 343.13 150.64 351.89 149.53 351.54 156.97 Q 351.37 160.71 347.46 162.23 A 0.61 0.61 0.0 0 0 347.15 163.11 L 351.81 171.22 A 0.35 0.35 0.0 0 1 351.50 171.74 L 349.87 171.71 Q 349.23 171.70 348.92 171.14 L 344.42 163.15 A 0.84 0.84 0.0 0 0 343.68 162.71 L 340.77 162.71 Q 340.26 162.71 340.26 163.23 Z M 340.27 153.18 L 340.21 160.30 A 0.52 0.52 0.0 0 0 340.72 160.83 L 344.43 160.86 A 4.53 3.95 0.5 0 0 349.00 156.95 L 349.00 156.69 A 4.53 3.95 0.5 0 0 344.51 152.70 L 340.80 152.67 A 0.52 0.52 0.0 0 0 340.27 153.18 Z"/>
  <path fill="#1a1919" d=" M 358.94 162.16 L 358.86 169.08 A 0.44 0.44 0.0 0 0 359.30 169.53 L 368.20 169.54 A 0.44 0.44 0.0 0 1 368.64 169.96 L 368.71 171.24 A 0.44 0.44 0.0 0 1 368.28 171.70 L 356.73 171.71 A 0.44 0.44 0.0 0 1 356.29 171.27 L 356.34 151.23 A 0.44 0.44 0.0 0 1 356.78 150.79 L 367.86 150.79 A 0.44 0.44 0.0 0 1 368.29 151.17 L 368.46 152.40 A 0.44 0.44 0.0 0 1 368.03 152.90 L 359.28 152.92 A 0.44 0.44 0.0 0 0 358.84 153.36 L 358.88 159.09 A 0.44 0.44 0.0 0 0 359.32 159.53 L 366.36 159.52 A 0.44 0.44 0.0 0 1 366.80 159.94 L 366.87 161.25 A 0.44 0.44 0.0 0 1 366.44 161.71 L 359.38 161.73 A 0.44 0.44 0.0 0 0 358.94 162.16 Z"/>
  <path fill="#1a1919" d=" M 381.47 165.55 L 379.66 171.31 A 0.50 0.50 0.0 0 1 379.22 171.66 L 377.65 171.77 A 0.50 0.50 0.0 0 1 377.14 171.11 L 383.94 151.08 A 0.50 0.50 0.0 0 1 384.43 150.74 L 386.60 150.78 A 0.50 0.50 0.0 0 1 387.06 151.12 L 393.81 171.07 A 0.50 0.50 0.0 0 1 393.33 171.73 L 391.67 171.70 A 0.50 0.50 0.0 0 1 391.21 171.34 L 389.48 165.58 A 0.50 0.50 0.0 0 0 389.00 165.22 L 381.95 165.20 A 0.50 0.50 0.0 0 0 381.47 165.55 Z M 382.33 162.87 A 0.33 0.33 0.0 0 0 382.64 163.30 L 388.22 163.32 A 0.33 0.33 0.0 0 0 388.53 162.89 L 385.78 153.84 A 0.33 0.33 0.0 0 0 385.15 153.84 L 382.33 162.87 Z"/>
  <path fill="#1a1919" d=" M 414.30 160.99 C 418.43 161.48 419.21 166.85 416.94 169.32 C 414.32 172.16 407.86 171.91 404.20 171.61 Q 403.64 171.57 403.64 171.01 L 403.63 151.29 Q 403.63 150.80 404.12 150.79 C 407.18 150.76 411.14 150.33 413.91 151.50 C 416.88 152.75 417.82 155.70 416.13 158.48 C 415.65 159.26 414.79 159.70 414.09 160.41 Q 413.61 160.91 414.30 160.99 Z M 406.19 153.17 L 406.17 159.35 A 0.47 0.47 0.0 0 0 406.64 159.82 L 410.36 159.83 A 4.09 3.36 0.1 0 0 414.46 156.48 L 414.46 156.08 A 4.09 3.36 0.1 0 0 410.38 152.71 L 406.66 152.70 A 0.47 0.47 0.0 0 0 406.19 153.17 Z M 406.09 162.10 L 406.17 169.40 A 0.42 0.42 0.0 0 0 406.60 169.81 L 410.12 169.77 A 5.64 3.59 -0.7 0 0 415.72 166.11 L 415.70 165.15 A 5.64 3.59 -0.7 0 0 410.02 161.63 L 406.50 161.67 A 0.42 0.42 0.0 0 0 406.09 162.10 Z"/>
  <path fill="#1a1919" d=" M 425.01 162.07 L 425.04 169.15 A 0.39 0.39 0.0 0 0 425.43 169.54 L 434.38 169.53 A 0.39 0.39 0.0 0 1 434.78 169.92 L 434.79 171.30 A 0.39 0.39 0.0 0 1 434.40 171.70 L 422.88 171.71 A 0.39 0.39 0.0 0 1 422.49 171.32 L 422.51 151.18 A 0.39 0.39 0.0 0 1 422.90 150.79 L 434.10 150.79 A 0.39 0.39 0.0 0 1 434.49 151.14 L 434.63 152.50 A 0.39 0.39 0.0 0 1 434.24 152.93 L 425.37 152.90 A 0.39 0.39 0.0 0 0 424.98 153.29 L 425.03 159.17 A 0.39 0.39 0.0 0 0 425.42 159.56 L 432.62 159.51 A 0.39 0.39 0.0 0 1 433.01 159.90 L 433.02 161.34 A 0.39 0.39 0.0 0 1 432.63 161.73 L 425.40 161.68 A 0.39 0.39 0.0 0 0 425.01 162.07 Z"/>
  <path fill="#1a1919" d=" M 446.36 153.38 L 446.34 171.28 A 0.45 0.45 0.0 0 1 445.89 171.72 L 444.19 171.71 A 0.45 0.45 0.0 0 1 443.75 171.26 L 443.75 153.36 A 0.45 0.45 0.0 0 0 443.30 152.91 L 437.70 152.93 A 0.45 0.45 0.0 0 1 437.26 152.42 L 437.42 151.18 A 0.45 0.45 0.0 0 1 437.86 150.79 L 452.27 150.79 A 0.45 0.45 0.0 0 1 452.72 151.23 L 452.75 152.47 A 0.45 0.45 0.0 0 1 452.30 152.93 L 446.81 152.93 A 0.45 0.45 0.0 0 0 446.36 153.38 Z"/>
  <path fill="#1a1919" d=" M 463.51 153.38 L 463.50 171.25 A 0.44 0.44 0.0 0 1 463.07 171.69 L 461.42 171.73 A 0.44 0.44 0.0 0 1 460.97 171.29 L 460.96 153.37 A 0.44 0.44 0.0 0 0 460.52 152.93 L 454.93 152.89 A 0.44 0.44 0.0 0 1 454.50 152.41 L 454.61 151.19 A 0.44 0.44 0.0 0 1 455.05 150.79 L 469.38 150.78 A 0.44 0.44 0.0 0 1 469.82 151.18 L 469.95 152.43 A 0.44 0.44 0.0 0 1 469.51 152.91 L 463.95 152.94 A 0.44 0.44 0.0 0 0 463.51 153.38 Z"/>
  <path fill="#1a1919" d=" M 476.33 153.31 L 476.36 159.16 A 0.39 0.39 0.0 0 0 476.75 159.55 L 483.90 159.52 A 0.39 0.39 0.0 0 1 484.29 159.91 L 484.30 161.33 A 0.39 0.39 0.0 0 1 483.91 161.72 L 476.75 161.69 A 0.39 0.39 0.0 0 0 476.36 162.08 L 476.33 169.14 A 0.39 0.39 0.0 0 0 476.72 169.53 L 485.76 169.53 A 0.39 0.39 0.0 0 1 486.15 169.92 L 486.16 171.31 A 0.39 0.39 0.0 0 1 485.77 171.70 L 474.14 171.70 A 0.39 0.39 0.0 0 1 473.75 171.31 L 473.75 151.18 A 0.39 0.39 0.0 0 1 474.14 150.79 L 485.36 150.78 A 0.39 0.39 0.0 0 1 485.75 151.12 L 485.91 152.47 A 0.39 0.39 0.0 0 1 485.52 152.90 L 476.72 152.92 A 0.39 0.39 0.0 0 0 476.33 153.31 Z"/>
  <path fill="#1a1919" d=" M 493.24 163.23 L 493.24 171.24 A 0.48 0.48 0.0 0 1 492.76 171.72 L 491.20 171.71 Q 490.69 171.71 490.69 171.20 L 490.71 151.29 Q 490.71 150.87 491.13 150.85 C 496.52 150.58 504.49 149.56 504.41 156.72 Q 504.36 160.96 500.54 162.12 A 0.68 0.68 0.0 0 0 500.15 163.11 L 504.81 171.22 A 0.35 0.35 0.0 0 1 504.50 171.74 L 502.90 171.69 Q 502.18 171.67 501.83 171.04 L 497.41 163.16 Q 497.16 162.70 496.63 162.70 L 493.76 162.71 Q 493.24 162.71 493.24 163.23 Z M 493.27 153.04 L 493.21 160.42 A 0.36 0.36 0.0 0 0 493.57 160.78 L 497.52 160.81 A 4.41 3.95 0.4 0 0 501.96 156.89 L 501.96 156.69 A 4.41 3.95 0.4 0 0 497.58 152.71 L 493.63 152.68 A 0.36 0.36 0.0 0 0 493.27 153.04 Z"/>
  <path fill="#1a1919" d=" M 518.35 164.05 L 518.34 171.14 Q 518.34 171.73 517.74 171.73 L 516.23 171.71 Q 515.76 171.70 515.76 171.23 L 515.76 151.28 Q 515.76 150.83 516.21 150.81 C 520.74 150.64 529.30 149.43 529.79 156.20 C 530.29 163.16 524.19 163.36 518.91 163.48 Q 518.35 163.49 518.35 164.05 Z M 518.34 153.28 L 518.34 160.70 A 0.59 0.59 0.0 0 0 518.93 161.29 L 523.18 161.29 A 4.12 3.76 0.0 0 0 527.30 157.53 L 527.30 156.45 A 4.12 3.76 -0.0 0 0 523.18 152.69 L 518.93 152.69 A 0.59 0.59 0.0 0 0 518.34 153.28 Z"/>
  <path fill="#1a1919" d=" M 537.12 169.55 L 545.69 169.54 A 0.34 0.34 0.0 0 1 546.03 169.90 L 545.95 171.37 A 0.34 0.34 0.0 0 1 545.61 171.69 L 534.60 171.68 A 0.34 0.34 0.0 0 1 534.26 171.34 L 534.27 151.11 A 0.34 0.34 0.0 0 1 534.61 150.77 L 536.44 150.76 A 0.34 0.34 0.0 0 1 536.78 151.10 L 536.78 169.21 A 0.34 0.34 0.0 0 0 537.12 169.55 Z"/>
  <path fill="#1a1919" d=" M 551.71 165.43 L 549.83 171.54 A 0.31 0.31 0.0 0 1 549.52 171.75 L 547.61 171.70 A 0.31 0.31 0.0 0 1 547.33 171.29 L 554.22 150.99 A 0.31 0.31 0.0 0 1 554.51 150.78 L 556.96 150.79 A 0.31 0.31 0.0 0 1 557.25 151.00 L 564.12 171.29 A 0.31 0.31 0.0 0 1 563.83 171.70 L 561.78 171.71 A 0.31 0.31 0.0 0 1 561.48 171.49 L 559.67 165.43 A 0.31 0.31 0.0 0 0 559.37 165.21 L 552.01 165.21 A 0.31 0.31 0.0 0 0 551.71 165.43 Z M 552.54 162.89 A 0.33 0.33 0.0 0 0 552.85 163.32 L 558.50 163.32 A 0.33 0.33 0.0 0 0 558.81 162.90 L 556.01 153.83 A 0.33 0.33 0.0 0 0 555.38 153.83 L 552.54 162.89 Z"/>
  <path fill="#1a1919" d=" M 569.72 155.99 L 569.83 171.45 A 0.28 0.28 0.0 0 1 569.55 171.73 L 567.69 171.69 Q 567.45 171.68 567.45 171.44 L 567.44 151.50 Q 567.43 151.00 567.92 150.85 C 569.23 150.45 570.00 150.71 570.70 151.92 Q 575.30 159.80 579.33 167.18 Q 579.98 168.37 579.97 167.01 L 579.79 151.25 Q 579.78 150.79 580.25 150.79 L 581.77 150.78 Q 582.26 150.77 582.26 151.27 L 582.25 171.12 Q 582.25 171.73 581.63 171.72 L 580.17 171.69 Q 579.57 171.68 579.27 171.15 L 570.48 155.78 Q 569.71 154.43 569.72 155.99 Z"/>
  <path fill="#1a1919" d=" M 591.16 169.55 L 600.05 169.53 A 0.44 0.44 0.0 0 1 600.49 169.95 L 600.53 171.24 A 0.44 0.44 0.0 0 1 600.09 171.70 L 588.64 171.70 A 0.44 0.44 0.0 0 1 588.20 171.26 L 588.19 151.23 A 0.44 0.44 0.0 0 1 588.63 150.79 L 599.70 150.80 A 0.44 0.44 0.0 0 1 600.14 151.21 L 600.23 152.44 A 0.44 0.44 0.0 0 1 599.79 152.91 L 591.12 152.90 A 0.44 0.44 0.0 0 0 590.68 153.34 L 590.74 159.11 A 0.44 0.44 0.0 0 0 591.18 159.55 L 598.26 159.52 A 0.44 0.44 0.0 0 1 598.70 159.94 L 598.75 161.26 A 0.44 0.44 0.0 0 1 598.31 161.72 L 591.13 161.68 A 0.44 0.44 0.0 0 0 590.69 162.12 L 590.72 169.11 A 0.44 0.44 0.0 0 0 591.16 169.55 Z"/>
  <path fill="#1a1919" d=" M 611.99 153.22 L 611.81 171.44 A 0.33 0.33 0.0 0 1 611.46 171.77 L 609.77 171.65 A 0.33 0.33 0.0 0 1 609.46 171.32 L 609.47 153.22 A 0.33 0.33 0.0 0 0 609.14 152.89 L 603.34 152.90 A 0.33 0.33 0.0 0 1 603.01 152.54 L 603.13 151.10 A 0.33 0.33 0.0 0 1 603.46 150.80 L 617.94 150.80 A 0.33 0.33 0.0 0 1 618.27 151.09 L 618.45 152.49 A 0.33 0.33 0.0 0 1 618.13 152.86 L 612.32 152.89 A 0.33 0.33 0.0 0 0 611.99 153.22 Z"/>
  <rect fill="#1a1919" x="210.17" y="159.88" width="36.50" height="2.70" rx="0.27"/>
  <rect fill="#1a1919" x="-18.29" y="-1.32" transform="translate(645.23,161.24) rotate(-0.1)" width="36.58" height="2.64" rx="0.27"/>
</svg>